<svg width="53" height="54" viewBox="0 0 53 54" fill="none" xmlns="http://www.w3.org/2000/svg">
<path d="M47.9683 36.693H41.441C41.1504 36.6931 40.8649 36.6153 40.6131 36.4674C40.3613 36.3195 40.1522 36.1067 40.0067 35.8504C39.8612 35.5941 39.7844 35.3032 39.7841 35.0071C39.7838 34.711 39.86 34.4201 40.0051 34.1634C41.0845 32.256 41.4663 30.0209 41.0828 27.8541C40.6993 25.6872 39.5752 23.7287 37.9099 22.3256C35.77 20.52 33.0554 19.8163 30.268 20.3546C26.606 21.0566 23.7043 24.0587 23.0467 27.8235C22.653 30 23.0348 32.2482 24.1233 34.1634C24.2687 34.4201 24.3452 34.7112 24.3452 35.0076C24.3451 35.304 24.2684 35.5951 24.1229 35.8517C23.9773 36.1082 23.768 36.3212 23.516 36.4692C23.264 36.6172 22.9782 36.695 22.6873 36.6947H5.03169C4.13645 36.6938 3.27815 36.3309 2.64528 35.6858C2.0124 35.0407 1.65669 34.166 1.65625 33.2539V5.12663C1.65713 4.21479 2.01303 3.34055 2.64586 2.69578C3.27869 2.05102 4.13674 1.68839 5.03169 1.6875H47.9683C48.8633 1.68839 49.7213 2.05102 50.3541 2.69578C50.987 3.34055 51.3429 4.21479 51.3438 5.12663V33.2556C51.3424 34.1671 50.9863 35.0409 50.3536 35.6853C49.7208 36.3297 48.863 36.6921 47.9683 36.693ZM43.9652 33.318H47.9683L48.0312 5.12663L47.9683 5.0625H5.03169L4.96875 33.2556L20.1532 33.3096C19.5484 31.345 19.4222 29.2599 19.7856 27.2346C20.6816 22.0944 24.6483 17.9972 29.6552 17.0387C33.3751 16.3232 37.1547 17.3053 40.0233 19.7286C41.9331 21.3368 43.3284 23.4892 44.0306 25.9101C44.7329 28.331 44.7101 30.9104 43.9652 33.318Z" fill="#454545"/>
<path d="M32.0651 42.2312C25.1834 42.2312 19.5869 36.5275 19.5869 29.5176C19.5869 22.5077 25.185 16.8057 32.0634 16.8057C38.9435 16.8057 44.5416 22.5077 44.5416 29.5176C44.5416 36.5275 38.9435 42.2312 32.0634 42.2312H32.0651ZM32.0651 20.1807C29.6353 20.1833 27.3058 21.1679 25.5875 22.9182C23.8692 24.6686 22.9025 27.042 22.8994 29.5176C22.902 31.9932 23.8683 34.3668 25.5863 36.1175C27.3043 37.8682 29.6336 38.8531 32.0634 38.8562C34.4935 38.8535 36.8233 37.8688 38.5417 36.118C40.26 34.3673 41.2265 31.9935 41.2291 29.5176C41.2261 27.042 40.2594 24.6686 38.5411 22.9182C36.8228 21.1679 34.4932 20.1833 32.0634 20.1807H32.0651Z" fill="#454545"/>
<path d="M32.0635 34.582C34.8076 34.582 37.0322 32.3155 37.0322 29.5195C37.0322 26.7236 34.8076 24.457 32.0635 24.457C29.3193 24.457 27.0947 26.7236 27.0947 29.5195C27.0947 32.3155 29.3193 34.582 32.0635 34.582Z" fill="#454545"/>
<path d="M42.6052 52.3126C42.3877 52.3126 42.1723 52.269 41.9714 52.1841C41.7704 52.0993 41.5879 51.9749 41.4342 51.8181L31.5083 41.7049C31.2826 41.4747 31.1271 41.1829 31.0604 40.8647C30.9937 40.5465 31.0188 40.2154 31.1326 39.9113C31.2463 39.6073 31.444 39.3432 31.7016 39.151C31.9593 38.9587 32.266 38.8465 32.5849 38.8278C34.1054 38.7428 35.5809 38.2715 36.8769 37.4568C38.1729 36.6421 39.2482 35.51 40.0048 34.1635C40.1317 33.939 40.3076 33.7472 40.5189 33.6031C40.7302 33.459 40.9712 33.3664 41.2233 33.3324C41.4754 33.2985 41.7317 33.3241 41.9725 33.4074C42.2133 33.4906 42.432 33.6293 42.6118 33.8125L50.8583 42.2163C51.0898 42.4523 51.2475 42.7529 51.3114 43.0802C51.3753 43.4075 51.3425 43.7467 51.2171 44.055C51.0918 44.3634 50.8796 44.6269 50.6073 44.8123C50.335 44.9977 50.0148 45.0967 49.6873 45.0968H44.2614V50.6251C44.2614 51.0726 44.0869 51.5018 43.7763 51.8183C43.4657 52.1348 43.0444 52.3126 42.6052 52.3126ZM36.0464 41.5564L40.9489 46.5514V43.4093C40.9489 42.9618 41.1234 42.5325 41.434 42.2161C41.7446 41.8996 42.1659 41.7218 42.6052 41.7218H45.6891L41.6661 37.6212C40.1907 39.4423 38.2438 40.8056 36.0464 41.5564Z" fill="#454545"/>
<path d="M21.5228 52.3126C21.0835 52.3126 20.6623 52.1349 20.3517 51.8184C20.0411 51.5019 19.8666 51.0727 19.8666 50.6251V45.0969H14.439C14.1119 45.096 13.7922 44.9965 13.5205 44.811C13.2487 44.6254 13.0368 44.3621 12.9116 44.0541C12.7864 43.7461 12.7535 43.4073 12.8169 43.0803C12.8803 42.7532 13.0373 42.4526 13.2681 42.2163L21.5162 33.8126C21.6959 33.6293 21.9147 33.4907 22.1554 33.4075C22.3962 33.3242 22.6526 33.2986 22.9047 33.3325C23.1568 33.3664 23.3978 33.4591 23.6091 33.6032C23.8204 33.7473 23.9963 33.9391 24.1231 34.1636C24.8797 35.5094 25.9545 36.6411 27.2499 37.4557C28.5452 38.2703 30.0199 38.742 31.5398 38.8278C31.8595 38.8448 32.1674 38.956 32.4263 39.148C32.6851 39.3399 32.8837 39.6042 32.9979 39.9089C33.112 40.2136 33.1369 40.5456 33.0695 40.8644C33.0021 41.1832 32.8452 41.4753 32.618 41.705L22.6938 51.8182C22.5401 51.975 22.3575 52.0994 22.1566 52.1842C21.9557 52.269 21.7403 52.3127 21.5228 52.3126ZM18.4389 41.7219H21.5228C21.9621 41.7219 22.3833 41.8997 22.6939 42.2162C23.0046 42.5326 23.1791 42.9618 23.1791 43.4094V46.5515L28.0816 41.5565C25.8839 40.8062 23.9365 39.4435 22.4602 37.623L18.4389 41.7219ZM26.4998 11.3638H9.49512C9.05585 11.3638 8.63458 11.186 8.32397 10.8695C8.01336 10.553 7.83887 10.1238 7.83887 9.67627C7.83887 9.22872 8.01336 8.79949 8.32397 8.48303C8.63458 8.16656 9.05585 7.98877 9.49512 7.98877H26.4998C26.9391 7.98877 27.3604 8.16656 27.671 8.48303C27.9816 8.79949 28.1561 9.22872 28.1561 9.67627C28.1561 10.1238 27.9816 10.553 27.671 10.8695C27.3604 11.186 26.9391 11.3638 26.4998 11.3638ZM19.8334 17.6379H9.49512C9.05585 17.6379 8.63458 17.4601 8.32397 17.1436C8.01336 16.8272 7.83887 16.3979 7.83887 15.9504C7.83887 15.5028 8.01336 15.0736 8.32397 14.7572C8.63458 14.4407 9.05585 14.2629 9.49512 14.2629H19.8334C20.2727 14.2629 20.694 14.4407 21.0046 14.7572C21.3152 15.0736 21.4897 15.5028 21.4897 15.9504C21.4897 16.3979 21.3152 16.8272 21.0046 17.1436C20.694 17.4601 20.2727 17.6379 19.8334 17.6379Z" fill="#454545"/>
</svg>
