<svg width="60" height="60" viewBox="0 0 60 60" fill="none" xmlns="http://www.w3.org/2000/svg">
<circle cx="30" cy="30" r="30" fill="#400862"/>
<path d="M22.4601 38.168C21.3401 38.168 20.3321 37.976 19.4361 37.592C18.5401 37.192 17.8361 36.632 17.3241 35.912C16.8121 35.192 16.5561 34.352 16.5561 33.392H19.4841C19.5481 34.112 19.8281 34.704 20.3241 35.168C20.8361 35.632 21.5481 35.864 22.4601 35.864C23.4041 35.864 24.1401 35.64 24.6681 35.192C25.1961 34.728 25.4601 34.136 25.4601 33.416C25.4601 32.856 25.2921 32.4 24.9561 32.048C24.6361 31.696 24.2281 31.424 23.7321 31.232C23.2521 31.04 22.5801 30.832 21.7161 30.608C20.6281 30.32 19.7401 30.032 19.0521 29.744C18.3801 29.44 17.8041 28.976 17.3241 28.352C16.8441 27.728 16.6041 26.896 16.6041 25.856C16.6041 24.896 16.8441 24.056 17.3241 23.336C17.8041 22.616 18.4761 22.064 19.3401 21.68C20.2041 21.296 21.2041 21.104 22.3401 21.104C23.9561 21.104 25.2761 21.512 26.3001 22.328C27.3401 23.128 27.9161 24.232 28.0281 25.64H25.0041C24.9561 25.032 24.6681 24.512 24.1401 24.08C23.6121 23.648 22.9161 23.432 22.0521 23.432C21.2681 23.432 20.6281 23.632 20.1321 24.032C19.6361 24.432 19.3881 25.008 19.3881 25.76C19.3881 26.272 19.5401 26.696 19.8441 27.032C20.1641 27.352 20.5641 27.608 21.0441 27.8C21.5241 27.992 22.1801 28.2 23.0121 28.424C24.1161 28.728 25.0121 29.032 25.7001 29.336C26.4041 29.64 26.9961 30.112 27.4761 30.752C27.9721 31.376 28.2201 32.216 28.2201 33.272C28.2201 34.12 27.9881 34.92 27.5241 35.672C27.0761 36.424 26.4121 37.032 25.5321 37.496C24.6681 37.944 23.6441 38.168 22.4601 38.168ZM40.6404 38L34.1844 30.536V38H31.4484V21.32H34.1844V28.928L40.6644 21.32H44.0964L36.8484 29.672L44.2164 38H40.6404Z" fill="white"/>
</svg>
