<svg width="55" height="54" viewBox="0 0 55 54" fill="none" xmlns="http://www.w3.org/2000/svg">
<mask id="mask0_736_2058" style="mask-type:alpha" maskUnits="userSpaceOnUse" x="0" y="0" width="55" height="54">
<rect x="0.75" width="53.5" height="53.5" fill="#D9D9D9"/>
</mask>
<g mask="url(#mask0_736_2058)">
<path d="M27.5002 49.0418C24.3793 49.0418 21.4628 48.4567 18.7507 47.2864C16.0385 46.116 13.6793 44.5278 11.6731 42.5215C9.66683 40.5153 8.08784 38.1468 6.9361 35.416C5.78436 32.6853 5.2085 29.7595 5.2085 26.6387C5.2085 23.5179 5.78436 20.6107 6.9361 17.9171C8.08784 15.2235 9.66683 12.8736 11.6731 10.8673C13.6793 8.8611 16.0385 7.2914 18.7507 6.15824C21.4628 5.02508 24.3793 4.4585 27.5002 4.4585C30.621 4.4585 33.5375 5.02508 36.2496 6.15824C38.9618 7.2914 41.321 8.8611 43.3272 10.8673C45.3335 12.8736 46.9125 15.2235 48.0642 17.9171C49.216 20.6107 49.7918 23.5179 49.7918 26.6387C49.7918 29.7595 49.216 32.6853 48.0642 35.416C46.9125 38.1468 45.3335 40.5153 43.3272 42.5215C41.321 44.5278 38.9618 46.116 36.2496 47.2864C33.5375 48.4567 30.621 49.0418 27.5002 49.0418ZM27.5002 45.8095C28.8005 44.472 29.8872 42.9395 30.7603 41.2119C31.6334 39.4843 32.3486 37.4316 32.9059 35.0538H22.1502C22.6703 37.283 23.3669 39.2892 24.24 41.0726C25.1131 42.8559 26.1998 44.4349 27.5002 45.8095ZM22.7632 45.1408C21.8344 43.729 21.0356 42.2057 20.3668 40.571C19.6981 38.9363 19.1408 37.0972 18.695 35.0538H10.3356C11.7474 37.6917 13.3821 39.7629 15.2397 41.2676C17.0974 42.7723 19.6052 44.0634 22.7632 45.1408ZM32.2929 45.0851C34.9679 44.2305 37.3735 42.9488 39.5098 41.2397C41.6461 39.5307 43.3644 37.4687 44.6647 35.0538H36.3611C35.8781 37.0601 35.3115 38.8805 34.6614 40.5153C34.0112 42.15 33.2217 43.6733 32.2929 45.0851ZM9.221 31.7101H18.0819C17.9705 30.7069 17.9055 29.806 17.8869 29.0072C17.8683 28.2084 17.859 27.4189 17.859 26.6387C17.859 25.7099 17.8776 24.8832 17.9147 24.1588C17.9519 23.4343 18.0262 22.6262 18.1377 21.7345H9.221C8.96093 22.6262 8.78445 23.425 8.69157 24.1309C8.59869 24.8368 8.55225 25.6727 8.55225 26.6387C8.55225 27.6047 8.59869 28.4685 8.69157 29.2301C8.78445 29.9917 8.96093 30.8184 9.221 31.7101ZM21.5371 31.7101H33.5189C33.6675 30.5583 33.7604 29.6202 33.7976 28.8957C33.8347 28.1713 33.8533 27.4189 33.8533 26.6387C33.8533 25.8956 33.8347 25.1805 33.7976 24.4931C33.7604 23.8058 33.6675 22.8863 33.5189 21.7345H21.5371C21.3885 22.8863 21.2956 23.8058 21.2585 24.4931C21.2213 25.1805 21.2028 25.8956 21.2028 26.6387C21.2028 27.4189 21.2213 28.1713 21.2585 28.8957C21.2956 29.6202 21.3885 30.5583 21.5371 31.7101ZM36.8627 31.7101H45.7793C46.0394 30.8184 46.2159 29.9917 46.3088 29.2301C46.4016 28.4685 46.4481 27.6047 46.4481 26.6387C46.4481 25.6727 46.4016 24.8368 46.3088 24.1309C46.2159 23.425 46.0394 22.6262 45.7793 21.7345H36.9184C37.0298 23.0349 37.1042 24.0287 37.1413 24.716C37.1785 25.4034 37.197 26.0443 37.197 26.6387C37.197 27.4561 37.1692 28.227 37.1134 28.9515C37.0577 29.6759 36.9741 30.5955 36.8627 31.7101ZM36.3054 18.3908H44.6647C43.4387 15.8272 41.7575 13.691 39.6213 11.9819C37.485 10.2729 35.0236 9.06544 32.2371 8.35954C33.166 9.73419 33.9555 11.2203 34.6056 12.8179C35.2558 14.4154 35.8224 16.2731 36.3054 18.3908ZM22.1502 18.3908H32.9616C32.5529 16.4217 31.8656 14.5176 30.8996 12.6785C29.9337 10.8395 28.8005 9.21405 27.5002 7.80225C26.3113 8.80537 25.3081 10.1243 24.4908 11.759C23.6734 13.3937 22.8932 15.6043 22.1502 18.3908ZM10.3356 18.3908H18.7507C19.1594 16.3845 19.6795 14.5919 20.3111 13.0129C20.9427 11.4339 21.7415 9.90138 22.7075 8.41527C19.921 9.12117 17.4875 10.3101 15.4069 11.9819C13.3264 13.6538 11.6359 15.7901 10.3356 18.3908Z" fill="#454545"/>
</g>
</svg>
