<svg width="30" height="39" viewBox="0 0 30 39" fill="none" xmlns="http://www.w3.org/2000/svg">
<path d="M4.57764e-05 32.7692V30.5H3.61545V14.7038C3.61545 11.9958 4.43723 9.58095 6.0808 7.45935C7.7244 5.33772 9.86415 4.02242 12.5 3.51345V2.5C12.5 1.80557 12.7429 1.2153 13.2285 0.729202C13.7142 0.243069 14.3039 0 14.9977 0C15.6915 0 16.282 0.243069 16.7692 0.729202C17.2564 1.2153 17.4999 1.80557 17.4999 2.5V3.52305C20.1358 4.02562 22.2756 5.33772 23.9192 7.45935C25.5628 9.58095 26.3845 11.9958 26.3845 14.7038V30.5H29.9999V32.7692H4.57764e-05ZM14.9966 38.3845C14.0014 38.3845 13.1506 38.0305 12.4442 37.3225C11.7378 36.6145 11.3846 35.7634 11.3846 34.7692H18.6153C18.6153 35.7666 18.261 36.6185 17.5523 37.3249C16.8437 38.0313 15.9918 38.3845 14.9966 38.3845ZM5.88459 30.5H24.1154V14.7038C24.1154 12.1781 23.2276 10.0275 21.4519 8.25185C19.6763 6.47622 17.5256 5.5884 15 5.5884C12.4744 5.5884 10.3237 6.47622 8.54805 8.25185C6.77241 10.0275 5.88459 12.1781 5.88459 14.7038V30.5Z" fill="#454545"/>
</svg>
