<svg width="38" height="40" viewBox="0 0 38 40" fill="none" xmlns="http://www.w3.org/2000/svg">
<path d="M11.551 39.0845C10.6598 39.0845 9.90607 38.771 9.2898 38.1439C8.67357 37.5168 8.36545 36.755 8.36545 35.8586C8.36545 34.9621 8.67704 34.2038 9.3002 33.5839C9.92337 32.9638 10.6804 32.6538 11.5713 32.6538C12.4622 32.6538 13.2192 32.9674 13.8423 33.5945C14.4654 34.2215 14.7769 34.9833 14.7769 35.8798C14.7769 36.7762 14.4634 37.5344 13.8363 38.1544C13.2092 38.7745 12.4474 39.0845 11.551 39.0845ZM30.9355 39.0845C30.0444 39.0845 29.2907 38.771 28.6744 38.1439C28.0581 37.5168 27.75 36.755 27.75 35.8586C27.75 34.9621 28.0616 34.2038 28.6848 33.5839C29.3079 32.9638 30.065 32.6538 30.9559 32.6538C31.8468 32.6538 32.6038 32.9674 33.2269 33.5945C33.85 34.2215 34.1615 34.9833 34.1615 35.8798C34.1615 36.7762 33.8479 37.5344 33.2208 38.1544C32.5937 38.7745 31.8319 39.0845 30.9355 39.0845ZM8.6346 6.7384L14.2116 18.3692H28.1308C28.2461 18.3692 28.3519 18.3404 28.4481 18.2827C28.5442 18.225 28.618 18.1448 28.6693 18.0423L34.5923 7.2769C34.6692 7.13587 34.6756 7.01085 34.6115 6.90185C34.5474 6.79289 34.4384 6.7384 34.2846 6.7384H8.6346ZM7.4808 4.4692H35.2214C36.0386 4.4692 36.6566 4.82242 37.0755 5.52885C37.4943 6.23525 37.5038 6.95127 37.1038 7.6769L30.9569 18.8129C30.6241 19.3658 30.1971 19.8082 29.6759 20.1403C29.1547 20.4723 28.5922 20.6384 27.9886 20.6384H13.2L10.4385 25.7422C10.3487 25.8961 10.3487 26.0628 10.4385 26.2423C10.5282 26.4218 10.6693 26.5115 10.8616 26.5115H34.1615V28.7807H11.1962C9.93724 28.7807 9.02827 28.346 8.4693 27.4768C7.9103 26.6076 7.91542 25.6474 8.48465 24.5961L11.7039 18.7346L4.14235 2.76915H0.396202V0.5H5.61155L7.4808 4.4692Z" fill="#454545"/>
</svg>
