<svg width="92" height="30" viewBox="0 0 92 30" fill="none" xmlns="http://www.w3.org/2000/svg">
<mask id="mask0_352_6159" style="mask-type:alpha" maskUnits="userSpaceOnUse" x="0" y="0" width="29" height="29">
<rect width="29" height="29" fill="#D9D9D9"/>
</mask>
<g mask="url(#mask0_352_6159)">
<path d="M12.2567 26.7567L0 14.4999L12.2567 2.24323L14.1218 4.13847L3.7603 14.4999L14.1218 24.8614L12.2567 26.7567Z" fill="#454545"/>
</g>
<mask id="mask1_352_6159" style="mask-type:alpha" maskUnits="userSpaceOnUse" x="8" y="0" width="30" height="29">
<rect x="8.45801" width="29" height="29" fill="#D9D9D9"/>
</mask>
<g mask="url(#mask1_352_6159)">
<path d="M20.7147 26.7567L8.45801 14.4999L20.7147 2.24323L22.5798 4.13847L12.2183 14.4999L22.5798 24.8614L20.7147 26.7567Z" fill="#454545"/>
</g>
<path d="M46.3306 14.86C47.0773 14.9933 47.7106 15.3867 48.2306 16.04C48.7506 16.6933 49.0106 17.4333 49.0106 18.26C49.0106 18.9667 48.824 19.6067 48.4506 20.18C48.0906 20.74 47.564 21.1867 46.8706 21.52C46.1773 21.84 45.3706 22 44.4506 22H38.8906V8.1H44.1906C45.1373 8.1 45.9506 8.26 46.6306 8.58C47.3106 8.9 47.824 9.33333 48.1706 9.88C48.5173 10.4133 48.6906 11.0133 48.6906 11.68C48.6906 12.48 48.4773 13.1467 48.0506 13.68C47.624 14.2133 47.0506 14.6067 46.3306 14.86ZM41.1706 13.94H43.9906C44.7373 13.94 45.3173 13.7733 45.7306 13.44C46.1573 13.0933 46.3706 12.6 46.3706 11.96C46.3706 11.3333 46.1573 10.8467 45.7306 10.5C45.3173 10.14 44.7373 9.96 43.9906 9.96H41.1706V13.94ZM44.2506 20.14C45.024 20.14 45.6306 19.9533 46.0706 19.58C46.5106 19.2067 46.7306 18.6867 46.7306 18.02C46.7306 17.34 46.4973 16.8 46.0306 16.4C45.564 16 44.944 15.8 44.1706 15.8H41.1706V20.14H44.2506ZM50.7283 16.44C50.7283 15.3333 50.9549 14.3533 51.4083 13.5C51.8749 12.6467 52.5016 11.9867 53.2883 11.52C54.0883 11.04 54.9683 10.8 55.9283 10.8C56.7949 10.8 57.5483 10.9733 58.1883 11.32C58.8416 11.6533 59.3616 12.0733 59.7483 12.58V10.98H62.0483V22H59.7483V20.36C59.3616 20.88 58.8349 21.3133 58.1683 21.66C57.5016 22.0067 56.7416 22.18 55.8883 22.18C54.9416 22.18 54.0749 21.94 53.2883 21.46C52.5016 20.9667 51.8749 20.2867 51.4083 19.42C50.9549 18.54 50.7283 17.5467 50.7283 16.44ZM59.7483 16.48C59.7483 15.72 59.5883 15.06 59.2683 14.5C58.9616 13.94 58.5549 13.5133 58.0483 13.22C57.5416 12.9267 56.9949 12.78 56.4083 12.78C55.8216 12.78 55.2749 12.9267 54.7683 13.22C54.2616 13.5 53.8483 13.92 53.5283 14.48C53.2216 15.0267 53.0683 15.68 53.0683 16.44C53.0683 17.2 53.2216 17.8667 53.5283 18.44C53.8483 19.0133 54.2616 19.4533 54.7683 19.76C55.2883 20.0533 55.8349 20.2 56.4083 20.2C56.9949 20.2 57.5416 20.0533 58.0483 19.76C58.5549 19.4667 58.9616 19.04 59.2683 18.48C59.5883 17.9067 59.7483 17.24 59.7483 16.48ZM64.283 16.48C64.283 15.3467 64.5096 14.3533 64.963 13.5C65.4296 12.6333 66.0696 11.9667 66.883 11.5C67.6963 11.0333 68.6296 10.8 69.683 10.8C71.0163 10.8 72.1163 11.12 72.983 11.76C73.863 12.3867 74.4563 13.2867 74.763 14.46H72.303C72.103 13.9133 71.783 13.4867 71.343 13.18C70.903 12.8733 70.3496 12.72 69.683 12.72C68.7496 12.72 68.003 13.0533 67.443 13.72C66.8963 14.3733 66.623 15.2933 66.623 16.48C66.623 17.6667 66.8963 18.5933 67.443 19.26C68.003 19.9267 68.7496 20.26 69.683 20.26C71.003 20.26 71.8763 19.68 72.303 18.52H74.763C74.443 19.64 73.843 20.5333 72.963 21.2C72.083 21.8533 70.9896 22.18 69.683 22.18C68.6296 22.18 67.6963 21.9467 66.883 21.48C66.0696 21 65.4296 20.3333 64.963 19.48C64.5096 18.6133 64.283 17.6133 64.283 16.48ZM81.3952 16.5L86.4752 22H83.3952L79.3152 17.26V22H77.0352V7.2H79.3152V15.8L83.3152 10.98H86.4752L81.3952 16.5Z" fill="#454545"/>
</svg>
