<svg width="21" height="17" viewBox="0 0 21 17" fill="none" xmlns="http://www.w3.org/2000/svg">
<path d="M2.47852 16.8132C1.92852 16.8132 1.45768 16.6192 1.06602 16.2312C0.674349 15.8432 0.478516 15.3768 0.478516 14.8319V2.94397C0.478516 2.39911 0.674349 1.93267 1.06602 1.54466C1.45768 1.15665 1.92852 0.962646 2.47852 0.962646H18.4785C19.0285 0.962646 19.4993 1.15665 19.891 1.54466C20.2827 1.93267 20.4785 2.39911 20.4785 2.94397V14.8319C20.4785 15.3768 20.2827 15.8432 19.891 16.2312C19.4993 16.6192 19.0285 16.8132 18.4785 16.8132H2.47852ZM10.4785 9.8786L2.47852 4.92529V14.8319H18.4785V4.92529L10.4785 9.8786ZM10.4785 7.89728L18.4785 2.94397H2.47852L10.4785 7.89728ZM2.47852 4.92529V2.94397V14.8319V4.92529Z" fill="#A4A4A4"/>
</svg>
