<svg width="97" height="92" viewBox="0 0 97 92" fill="none" xmlns="http://www.w3.org/2000/svg">
<path d="M33.8196 91.6717L25.603 77.8237L10.002 74.4061L11.525 58.3446L0.953125 46.25L11.525 34.1553L10.002 18.0939L25.603 14.6762L33.8196 0.828247L48.4998 7.0616L63.1799 0.828247L71.3965 14.6762L86.9975 18.0939L85.4746 34.1553L96.0464 46.25L85.4746 58.3446L86.9975 74.4061L71.3965 77.8237L63.1799 91.6716L48.4998 85.4383L33.8196 91.6717ZM36.7592 82.8531L48.4998 77.877L60.3821 82.8531L66.9164 71.8031L79.5779 68.8989L78.4269 55.9187L86.9446 46.25L78.4269 36.4395L79.5779 23.4593L66.9164 20.6968L60.2404 9.64684L48.4998 14.6229L36.6175 9.64684L30.0831 20.6968L17.4217 23.4593L18.5727 36.4395L10.055 46.25L18.5727 55.9187L17.4217 69.0406L30.0831 71.8031L36.7592 82.8531ZM43.6654 61.0009L68.0851 36.5812L63.2331 31.5875L43.6654 51.1552L33.7664 41.398L28.9145 46.25L43.6654 61.0009Z" fill="#03A200"/>
</svg>
