<svg width="23" height="21" viewBox="0 0 23 21" fill="none" xmlns="http://www.w3.org/2000/svg">
<path d="M16.0177 11.2915L14.5634 9.85075C14.7138 9.07244 14.4882 8.34381 13.8864 7.66485C13.2846 6.9859 12.5073 6.72094 11.5545 6.86998L10.1002 5.42928C10.3844 5.2968 10.6728 5.19744 10.9653 5.1312C11.2578 5.06496 11.5712 5.03184 11.9056 5.03184C13.1593 5.03184 14.2249 5.46654 15.1025 6.33593C15.9801 7.20532 16.4189 8.26101 16.4189 9.503C16.4189 9.83419 16.3854 10.1447 16.3186 10.4345C16.2517 10.7243 16.1514 11.0099 16.0177 11.2915ZM19.2271 14.4213L17.7729 13.0302C18.4081 12.55 18.9722 12.0242 19.4653 11.4529C19.9585 10.8816 20.3805 10.2316 20.7316 9.503C19.8958 7.83045 18.6964 6.50153 17.1335 5.51622C15.5705 4.53091 13.8279 4.03825 11.9056 4.03825C11.4208 4.03825 10.9444 4.07137 10.4764 4.13761C10.0083 4.20385 9.54862 4.30321 9.09729 4.43569L7.54271 2.89562C8.22806 2.61411 8.93013 2.40297 9.64891 2.26221C10.3677 2.12145 11.1199 2.05107 11.9056 2.05107C14.4297 2.05107 16.678 2.74245 18.6504 4.12519C20.6229 5.50794 22.0521 7.30054 22.9381 9.503C22.5536 10.48 22.048 11.3867 21.4211 12.2229C20.7943 13.0592 20.0629 13.792 19.2271 14.4213ZM19.7286 20.5318L15.5162 16.4084C14.9311 16.5906 14.3419 16.7272 13.7485 16.8183C13.1551 16.9094 12.5408 16.9549 11.9056 16.9549C9.38146 16.9549 7.13316 16.2635 5.16068 14.8808C3.1882 13.4981 1.75899 11.7055 0.873047 9.503C1.22408 8.62533 1.66705 7.80975 2.20196 7.05628C2.73687 6.30281 3.34701 5.628 4.03236 5.03184L1.27423 2.24979L2.67837 0.858765L21.1328 19.1408L19.7286 20.5318ZM5.4365 6.42287C4.95174 6.85342 4.50876 7.32538 4.10758 7.83873C3.7064 8.35209 3.36372 8.90684 3.07955 9.503C3.91535 11.1755 5.11472 12.5045 6.67766 13.4898C8.2406 14.4751 9.98323 14.9677 11.9056 14.9677C12.2399 14.9677 12.5658 14.947 12.8834 14.9056C13.201 14.8642 13.527 14.8187 13.8613 14.769L12.9587 13.8251C12.7748 13.8748 12.5993 13.9121 12.4321 13.9369C12.265 13.9617 12.0894 13.9742 11.9056 13.9742C10.6519 13.9742 9.58623 13.5395 8.70864 12.6701C7.83106 11.8007 7.39226 10.745 7.39226 9.503C7.39226 9.32084 7.4048 9.14696 7.42987 8.98136C7.45495 8.81576 7.49256 8.64189 7.54271 8.45973L5.4365 6.42287Z" fill="#A4A4A4"/>
</svg>
