<svg width="23" height="16" viewBox="0 0 23 16" fill="none" xmlns="http://www.w3.org/2000/svg">
<path d="M11.8701 12.8506C13.1201 12.8506 14.1826 12.4172 15.0576 11.5503C15.9326 10.6835 16.3701 9.63093 16.3701 8.39261C16.3701 7.15428 15.9326 6.1017 15.0576 5.23487C14.1826 4.36804 13.1201 3.93463 11.8701 3.93463C10.6201 3.93463 9.55762 4.36804 8.68262 5.23487C7.80762 6.1017 7.37012 7.15428 7.37012 8.39261C7.37012 9.63093 7.80762 10.6835 8.68262 11.5503C9.55762 12.4172 10.6201 12.8506 11.8701 12.8506ZM11.8701 11.0674C11.1201 11.0674 10.4826 10.8073 9.95762 10.2872C9.43262 9.76715 9.17012 9.1356 9.17012 8.39261C9.17012 7.64961 9.43262 7.01806 9.95762 6.49797C10.4826 5.97787 11.1201 5.71782 11.8701 5.71782C12.6201 5.71782 13.2576 5.97787 13.7826 6.49797C14.3076 7.01806 14.5701 7.64961 14.5701 8.39261C14.5701 9.1356 14.3076 9.76715 13.7826 10.2872C13.2576 10.8073 12.6201 11.0674 11.8701 11.0674ZM11.8701 15.8226C9.43678 15.8226 7.22012 15.1497 5.22012 13.8041C3.22012 12.4584 1.77012 10.6546 0.870117 8.39261C1.77012 6.1306 3.22012 4.32677 5.22012 2.98112C7.22012 1.63547 9.43678 0.962646 11.8701 0.962646C14.3035 0.962646 16.5201 1.63547 18.5201 2.98112C20.5201 4.32677 21.9701 6.1306 22.8701 8.39261C21.9701 10.6546 20.5201 12.4584 18.5201 13.8041C16.5201 15.1497 14.3035 15.8226 11.8701 15.8226ZM11.8701 13.8412C13.7535 13.8412 15.4826 13.35 17.0576 12.3676C18.6326 11.3852 19.8368 10.0602 20.6701 8.39261C19.8368 6.72499 18.6326 5.39998 17.0576 4.41758C15.4826 3.43517 13.7535 2.94397 11.8701 2.94397C9.98678 2.94397 8.25762 3.43517 6.68262 4.41758C5.10762 5.39998 3.90345 6.72499 3.07012 8.39261C3.90345 10.0602 5.10762 11.3852 6.68262 12.3676C8.25762 13.35 9.98678 13.8412 11.8701 13.8412Z" fill="#A4A4A4"/>
</svg>
