<svg width="23" height="13" viewBox="0 0 23 13" fill="none" xmlns="http://www.w3.org/2000/svg">
<path d="M6.87793 12.832C5.21126 12.832 3.7946 12.2541 2.62793 11.0984C1.46126 9.9426 0.87793 8.53916 0.87793 6.88806C0.87793 5.23696 1.46126 3.83352 2.62793 2.67775C3.7946 1.52198 5.21126 0.944092 6.87793 0.944092C7.97793 0.944092 8.98626 1.21652 9.90293 1.76139C10.8196 2.30625 11.5446 3.02448 12.0779 3.91608H22.8779V9.86004H20.8779V12.832H14.8779V9.86004H12.0779C11.5446 10.7516 10.8196 11.4699 9.90293 12.0147C8.98626 12.5596 7.97793 12.832 6.87793 12.832ZM6.87793 10.8507C7.97793 10.8507 8.86126 10.5164 9.52793 9.84766C10.1946 9.17896 10.5946 8.52265 10.7279 7.87872H16.8779V10.8507H18.8779V7.87872H20.8779V5.8974H10.7279C10.5946 5.25347 10.1946 4.59716 9.52793 3.92846C8.86126 3.25976 7.97793 2.92541 6.87793 2.92541C5.77793 2.92541 4.83626 3.31342 4.05293 4.08944C3.2696 4.86546 2.87793 5.79833 2.87793 6.88806C2.87793 7.97779 3.2696 8.91066 4.05293 9.68668C4.83626 10.4627 5.77793 10.8507 6.87793 10.8507ZM6.87793 8.86938C7.42793 8.86938 7.89876 8.67538 8.29043 8.28737C8.6821 7.89936 8.87793 7.43292 8.87793 6.88806C8.87793 6.3432 8.6821 5.87676 8.29043 5.48875C7.89876 5.10074 7.42793 4.90674 6.87793 4.90674C6.32793 4.90674 5.8571 5.10074 5.46543 5.48875C5.07376 5.87676 4.87793 6.3432 4.87793 6.88806C4.87793 7.43292 5.07376 7.89936 5.46543 8.28737C5.8571 8.67538 6.32793 8.86938 6.87793 8.86938Z" fill="#A4A4A4"/>
</svg>
